<svg xmlns="http://www.w3.org/2000/svg" xmlns:xlink="http://www.w3.org/1999/xlink" width="217.585" height="60" viewBox="0 0 217.585 60"><defs><clipPath id="a"><rect width="217.585" height="60" fill="#fff"/></clipPath></defs><g transform="translate(0 0)"><rect width="1.33" height="60" transform="translate(94.998 0)" fill="#fff"/><path d="M9.821,4.611V7.9H20.628L3.554,24.978,0,21.424V36.707H15.283l-3.37-3.371L22.75,22.5V44.173h-7.9L29.669,58.992,44.488,44.173h-7.9V22.5L47.427,33.335l-3.37,3.371H59.339V21.424l-3.553,3.553L38.712,7.9H49.519V4.611Z" transform="translate(0 -0.554)" fill="#fff"/><g transform="translate(0 0)"><g transform="translate(0 0)" clip-path="url(#a)"><path d="M190.934,19.764a12.612,12.612,0,1,1-12.612,12.612,12.486,12.486,0,0,1,12.612-12.612m-9.443,12.612c0,5.691,4.01,9.96,9.411,9.96s9.475-4.269,9.475-9.96-4.043-9.961-9.444-9.961-9.443,4.269-9.443,9.961m26.842-12.063h2.975V41.948H221.43v2.62h-13.1Zm20.245,10.154H238.7v2.619H228.578V44.568H225.6V20.314h13.421v2.619H228.578Z" transform="translate(-21.438 -2.376)" fill="#fff"/><path d="M158.924,44.988c-7.051,0-12.289-5.5-12.289-12.677a12.471,12.471,0,0,1,12.613-12.548,11.312,11.312,0,0,1,10.8,7.535h-3.363a7.865,7.865,0,0,0-7.438-4.883c-5.142,0-9.411,3.977-9.411,9.9,0,5.886,3.719,10.025,9.475,10.025,4.689,0,8.173-2.814,8.173-7.438v-.647h-6.75v-2.62h9.41V44.406h-2.661V41.232c-1.626,2.377-3.967,3.756-8.561,3.756" transform="translate(-17.629 -2.376)" fill="#fff"/></g></g></g></svg>